<svg xmlns="http://www.w3.org/2000/svg" viewBox="0 0 48 48" aria-labelledby="title">
  <title>Dompet Daily logo</title>
  <rect width="48" height="48" rx="14" fill="#2D8CFF"/>
  <g fill="none" stroke="#fff" stroke-linecap="round" stroke-linejoin="round" stroke-width="3">
    <path d="M11 15.5h25.5c3.3 0 6 2.7 6 6v13c0 3.3-2.7 6-6 6H11c-3.3 0-6-2.7-6-6v-13c0-3.3 2.7-6 6-6Z"/>
    <path d="M12.5 15.5 29 8.3c2.3-1 4.8.7 4.8 3.2v4"/>
    <path d="M31.5 25.5h11v8h-11c-2.2 0-4-1.8-4-4s1.8-4 4-4Z"/>
    <path d="M34.3 29.5h.2"/>
    <path d="M14 24.2h8.5"/>
    <path d="M14 29.5h6.2"/>
    <path d="M17 35.2c3.1-1.1 6.1-1.1 9.2 0 2.4.9 4.8.9 7.2 0"/>
  </g>
</svg>
